<?xml version="1.0" standalone="no"?><!DOCTYPE svg PUBLIC "-//W3C//DTD SVG 1.1//EN" "http://www.w3.org/Graphics/SVG/1.1/DTD/svg11.dtd"><svg class="icon" width="200px" height="200.00px" viewBox="0 0 1024 1024" version="1.1" xmlns="http://www.w3.org/2000/svg"><path fill="#000000" d="M646.730105 511.998653C646.730105 586.423563 586.397964 646.728759 512 646.728759 437.575089 646.728759 377.269895 586.423563 377.269895 511.998653 377.269895 437.600688 437.575089 377.268548 512 377.268548 533.961007 377.268548 554.386092 383.034995 572.709386 392.358319L970.62128 53.323481 631.586442 451.181483C640.936711 469.531723 646.730105 490.010699 646.730105 511.998653ZM431.161937 511.998653C431.161937 556.64821 467.350443 592.836716 512 592.836716 556.649557 592.836716 592.838063 556.64821 592.838063 511.998653 592.838063 467.349096 556.649557 431.160589 512 431.160589 467.350443 431.160589 431.161937 467.349096 431.161937 511.998653ZM512 53.916293C259.003808 53.916293 53.917641 259.002461 53.917641 511.998653 53.917641 764.994845 259.003808 970.081012 512 970.081012 764.996192 970.081012 970.082359 764.994845 970.082359 511.998653 970.082359 433.019865 950.088412 358.729685 914.896908 293.870611L950.277033 248.358782C996.731974 325.451348 1023.974401 415.451059 1023.974401 511.998653 1023.974401 794.770198 794.7446 1023.973054 512 1023.973054 229.228455 1023.973054 0.025599 794.770198 0.025599 511.998653 0.025599 229.254053 229.228455 0.024252 512 0.024252 608.574539 0.024252 698.547305 27.266679 775.639871 73.721619L730.128041 109.101745C665.268969 73.910241 590.978788 53.916293 512 53.916293Z" /></svg>