<?xml version="1.0" standalone="no"?><!DOCTYPE svg PUBLIC "-//W3C//DTD SVG 1.1//EN" "http://www.w3.org/Graphics/SVG/1.1/DTD/svg11.dtd"><svg class="icon" width="200px" height="200.00px" viewBox="0 0 1024 1024" version="1.1" xmlns="http://www.w3.org/2000/svg"><path fill="#000000" d="M864.2785 330.7807l2.4535-6.3795-20.7483-18.6757 0 0-118.8444-106.9568L587.5466 73.1341l-5.7262 2.5354c-13.4134-5.8614-28.0269-9.7055-40.8678-9.7055h-335.02208c-30.7814 0-55.8367 25.0563-55.8367 55.8367v781.7185280000001c0 30.7814 25.0563 55.8367 55.8367 55.8367h614.207488c30.7814 0 55.8367-25.0563 55.8367-55.8367V373.066752C875.9747 359.4066 871.339 344.2749 864.2785 330.7807zM596.7882 156.5614 775.3144 317.2301H596.7882239999999V156.561408zM820.054 903.5182H205.93049599999998V121.79968h335.02208v223.347712l27.9183 27.9194h251.26707199999998L820.054 903.5182z" /></svg>