<?xml version="1.0" standalone="no"?><!DOCTYPE svg PUBLIC "-//W3C//DTD SVG 1.1//EN" "http://www.w3.org/Graphics/SVG/1.1/DTD/svg11.dtd"><svg class="icon" width="200px" height="200.00px" viewBox="0 0 1024 1024" version="1.1" xmlns="http://www.w3.org/2000/svg"><path d="M123.5 438.5h131.3v310.7H123.5zM769.2 438.5h131.3v310.7H769.2z" fill="#D1D2D4" /><path d="M859.8 398.8h-48.3c-7.9 0-15.4 1.6-22.5 3.9v-32.4c0-125.2-101.9-227.1-227.1-227.1h-99.7c-125.2 0-227.1 101.9-227.1 227.1v32.4c-7.1-2.3-14.6-3.9-22.5-3.9h-48.3c-40.9 0-74.2 33.3-74.2 74.2v243c0 40.9 33.3 74.2 74.2 74.2h48.3c40.9 0 74.2-33.3 74.2-74.2V370.3c0-96.7 78.7-175.4 175.4-175.4h99.7c96.7 0 175.4 78.7 175.4 175.4V716c0 40.9 33.3 74.2 74.2 74.2h48.3c40.9 0 74.2-33.3 74.2-74.2V473c-0.1-40.9-33.3-74.2-74.2-74.2zM235.1 716c0 12.4-10.1 22.5-22.5 22.5h-48.3c-12.4 0-22.5-10.1-22.5-22.5V473c0-12.4 10.1-22.5 22.5-22.5h48.3c12.4 0 22.5 10.1 22.5 22.5v243z m647.2 0c0 12.4-10.1 22.5-22.5 22.5h-48.3c-12.4 0-22.5-10.1-22.5-22.5V473c0-12.4 10.1-22.5 22.5-22.5h48.3c12.4 0 22.5 10.1 22.5 22.5v243z"  /><path d="M531.3 652.3c-1.7 0-3.3-0.1-5-0.4-10.2-1.7-18.7-8.3-22.7-17.8l-41.1-95.4-37 43.8c-8.1 9.6-19.9 15.1-32.5 15.1h-71.9V546h67.6l56.6-67.1c6.8-8.1 17-12 27.5-10.4 10.4 1.5 19.1 8.2 23.3 17.9l41.6 96.7 21.9-24c8-8.8 19.5-13.9 31.4-13.9h102.4v51.7H595l-41.6 45.7c-5.6 6.2-13.7 9.7-22.1 9.7z"  /></svg>