<?xml version="1.0" standalone="no"?><!DOCTYPE svg PUBLIC "-//W3C//DTD SVG 1.1//EN" "http://www.w3.org/Graphics/SVG/1.1/DTD/svg11.dtd"><svg t="1586058109037" class="icon" viewBox="0 0 1024 1024" version="1.1" xmlns="http://www.w3.org/2000/svg" p-id="2476" xmlns:xlink="http://www.w3.org/1999/xlink" width="200" height="200"><defs><style type="text/css">html, * { user-select: text !important; }
</style></defs><path d="M867.995 459.647h-711.99c-27.921 0-52.353 24.434-52.353 52.353s24.434 52.353 52.353 52.353h711.99c27.921 0 52.353-24.434 52.353-52.353s-24.434-52.353-52.353-52.353z" p-id="2477" fill="#ffffff"></path><path d="M867.995 763.291h-711.99c-27.921 0-52.353 24.434-52.353 52.353s24.434 52.353 52.353 52.353h711.99c27.921 0 52.353-24.434 52.353-52.353s-24.434-52.353-52.353-52.353z" p-id="2478" fill="#ffffff"></path><path d="M156.005 260.709h711.99c27.921 0 52.353-24.434 52.353-52.353s-24.434-52.353-52.353-52.353h-711.99c-27.921 0-52.353 24.434-52.353 52.353s24.434 52.353 52.353 52.353z" p-id="2479" fill="#ffffff"></path></svg>