<?xml version="1.0" standalone="no"?><!DOCTYPE svg PUBLIC "-//W3C//DTD SVG 1.1//EN" "http://www.w3.org/Graphics/SVG/1.1/DTD/svg11.dtd"><svg class="icon" width="200px" height="200.00px" viewBox="0 0 1024 1024" version="1.1" xmlns="http://www.w3.org/2000/svg"><path fill="#000000" d="M826.863642 381.784286c-71.958892 0-130.501216 58.542324-130.501216 130.500193s58.542324 130.500193 130.501216 130.500193c71.957869 0 130.500193-58.542324 130.500193-130.500193S898.822534 381.784286 826.863642 381.784286zM826.863642 591.562057c-43.714617 0-79.278601-35.563984-79.278601-79.277578s35.563984-79.277578 79.278601-79.277578c43.713594 0 79.277578 35.563984 79.277578 79.277578S870.577237 591.562057 826.863642 591.562057zM504.12617 381.784286c-71.957869 0-130.500193 58.542324-130.500193 130.500193s58.541301 130.500193 130.500193 130.500193 130.500193-58.542324 130.500193-130.500193S576.084039 381.784286 504.12617 381.784286zM504.12617 591.562057c-43.713594 0-79.276554-35.563984-79.276554-79.277578s35.56296-79.277578 79.276554-79.277578 79.277578 35.563984 79.277578 79.277578S547.838741 591.562057 504.12617 591.562057zM197.53033 381.784286c-71.957869 0-130.500193 58.542324-130.500193 130.500193s58.542324 130.500193 130.500193 130.500193 130.500193-58.542324 130.500193-130.500193S269.489222 381.784286 197.53033 381.784286zM197.53033 591.562057c-43.713594 0-79.277578-35.563984-79.277578-79.277578s35.563984-79.277578 79.277578-79.277578 79.277578 35.563984 79.277578 79.277578S241.243925 591.562057 197.53033 591.562057z" /></svg>