<?xml version="1.0" standalone="no"?><!DOCTYPE svg PUBLIC "-//W3C//DTD SVG 1.1//EN" "http://www.w3.org/Graphics/SVG/1.1/DTD/svg11.dtd"><svg t="1589021417861" class="icon" viewBox="0 0 1170 1024" version="1.1" xmlns="http://www.w3.org/2000/svg" p-id="1122" xmlns:xlink="http://www.w3.org/1999/xlink" width="228.515625" height="200"><defs><style type="text/css">html, * { user-select: text !important; }
</style></defs><path d="M1011.02857138 710.12857168a77.14285752 77.14285752 0 0 0 0-96.25714277C882.37142862 452.68571445 737 370.57142832 576.28571416 370.57142832S270.19999971 452.68571445 141.54285693 613.87142891a77.14285752 77.14285752 0 0 0 0 96.25714276C270.19999971 871.31428614 415.57142832 953.42857138 576.28571416 953.42857138s306.08571445-82.11428613 434.74285722-243.29999971z m-815.91428583-42.77142861a8.57142862 8.57142862 0 0 1 0-10.71428555C311.68571416 510.71428584 438.28571445 439.14285722 576.28571416 439.14285722c137.99999971 0 264.64285722 71.52857138 381.17142861 217.5000003a8.57142862 8.57142862 0 0 1 0 10.71428555C840.88571416 813.28571387 714.28571386 884.85714248 576.28571416 884.85714248c-137.99999971 0-264.64285722-71.52857138-381.17142861-217.49999941z" p-id="1123"></path><path d="M576.28571416 824.85714307a162.85714278 162.85714278 0 1 0 0-325.71428555 162.85714278 162.85714278 0 0 0 0 325.71428555z m0-68.57142891a94.28571386 94.28571386 0 1 1 0-188.57142861 94.28571386 94.28571386 0 0 1 0 188.57142861zM102.71428613 322.57142862l98.01428555 93.12857138a34.28571445 34.28571445 0 1 0 47.22857139-49.71428613L149.85714307 272.85714248A34.28571445 34.28571445 0 0 0 102.67142891 322.57142862zM1052 323.60000029l-107.14285722 93.12857139a34.28571445 34.28571445 0 0 1-45.00000001-51.77142861l107.14285723-93.12857139a34.28571445 34.28571445 0 0 1 45 51.77142861zM541.99999971 126.28571416v142.28571446a34.28571445 34.28571445 0 1 0 68.57142891 0V126.28571416a34.28571445 34.28571445 0 1 0-68.57142891 0z" p-id="1124"></path></svg>