<?xml version="1.0" standalone="no"?><!DOCTYPE svg PUBLIC "-//W3C//DTD SVG 1.1//EN" "http://www.w3.org/Graphics/SVG/1.1/DTD/svg11.dtd"><svg t="1586060834145" class="icon" viewBox="0 0 1024 1024" version="1.1" xmlns="http://www.w3.org/2000/svg" p-id="4169" xmlns:xlink="http://www.w3.org/1999/xlink" width="200" height="200"><defs><style type="text/css">html, * { user-select: text !important; }
</style></defs><path d="M992.064 325.248l-146.752-71.232-73.6 142.912 58.816 30.336 23.68-45.952c20.224 45.632 31.424 94.912 31.424 144.896 0 202.048-169.856 366.464-378.624 366.464a389.12 389.12 0 0 1-180.416-44.16l-30.784 58.56a455.68 455.68 0 0 0 211.264 51.904c245.312 0 444.8-194.112 444.8-432.704 0-55.872-11.52-111.296-33.024-162.944l44.288 21.568 28.928-59.648zM169.792 642.624a358.08 358.08 0 0 1-31.424-144.896c0-202.048 169.856-366.528 378.624-366.528 62.976 0 125.376 15.296 180.416 44.224l30.784-58.56a455.36 455.36 0 0 0-211.2-51.776c-245.248 0-444.8 194.048-444.8 432.704 0 55.936 11.52 111.36 33.088 162.944l-44.416-21.632-28.864 59.648 146.688 71.168 73.664-142.912-58.88-30.336-23.68 45.952z m0 0" p-id="4170" fill="#000000"></path></svg>