<?xml version="1.0" standalone="no"?><!DOCTYPE svg PUBLIC "-//W3C//DTD SVG 1.1//EN" "http://www.w3.org/Graphics/SVG/1.1/DTD/svg11.dtd"><svg class="icon" width="200px" height="200.00px" viewBox="0 0 1024 1024" version="1.1" xmlns="http://www.w3.org/2000/svg"><path fill="#000000" d="M898.752 512.256a384.832 384.832 0 0 1-113.408 273.664c-73.28 73.152-170.432 113.344-273.792 113.344s-200.704-40.256-273.728-113.472c-73.28-73.088-113.472-170.24-113.472-273.728s40.384-200.704 113.536-273.92a384.256 384.256 0 0 1 273.792-113.408h0.96L512.704 64h-1.088a446.592 446.592 0 0 0-316.928 131.264 446.464 446.464 0 0 0-131.2 316.8c0 60.416 11.968 119.104 35.136 174.336a448.256 448.256 0 0 0 587.392 238.464 448.384 448.384 0 0 0 273.6-412.608h-60.864zM562.368 504.96l335.296-335.424v174.848h60.8V66.56h-278.592v60.672h174.208l-334.72 334.784z" /></svg>